<svg width="500" height="400" viewBox="0 0 500 400" xmlns="http://www.w3.org/2000/svg">
  <defs>
    <linearGradient id="heroGradient" x1="0%" y1="0%" x2="100%" y2="100%">
      <stop offset="0%" style="stop-color:#13265b;stop-opacity:1" />
      <stop offset="100%" style="stop-color:#1a2f6b;stop-opacity:1" />
    </linearGradient>
    <linearGradient id="bookGradient" x1="0%" y1="0%" x2="100%" y2="100%">
      <stop offset="0%" style="stop-color:#f59e0b;stop-opacity:1" />
      <stop offset="100%" style="stop-color:#fbbf24;stop-opacity:1" />
    </linearGradient>
  </defs>
  
  <!-- Background -->
  <rect width="500" height="400" fill="url(#heroGradient)"/>
  
  <!-- Floating elements -->
  <circle cx="80" cy="60" r="3" fill="#f59e0b" opacity="0.6">
    <animate attributeName="cy" values="60;50;60" dur="3s" repeatCount="indefinite"/>
  </circle>
  <circle cx="420" cy="80" r="2" fill="#10b981" opacity="0.7">
    <animate attributeName="cy" values="80;70;80" dur="2.5s" repeatCount="indefinite"/>
  </circle>
  <circle cx="450" cy="150" r="2.5" fill="#f59e0b" opacity="0.5">
    <animate attributeName="cy" values="150;140;150" dur="3.5s" repeatCount="indefinite"/>
  </circle>
  
  <!-- Main illustration -->
  <g transform="translate(100, 80)">
    <!-- Book -->
    <rect x="50" y="120" width="200" height="140" rx="10" fill="url(#bookGradient)" stroke="#e5e7eb" stroke-width="2"/>
    <rect x="60" y="130" width="180" height="120" rx="5" fill="white"/>
    
    <!-- Book pages -->
    <line x1="70" y1="150" x2="230" y2="150" stroke="#d1d5db" stroke-width="1"/>
    <line x1="70" y1="170" x2="200" y2="170" stroke="#d1d5db" stroke-width="1"/>
    <line x1="70" y1="190" x2="220" y2="190" stroke="#d1d5db" stroke-width="1"/>
    <line x1="70" y1="210" x2="180" y2="210" stroke="#d1d5db" stroke-width="1"/>
    <line x1="70" y1="230" x2="210" y2="230" stroke="#d1d5db" stroke-width="1"/>
    
    <!-- English text on book -->
    <text x="150" y="145" text-anchor="middle" fill="#13265b" font-family="Arial, sans-serif" font-size="12" font-weight="bold">ENGLISH</text>
    
    <!-- Graduation cap -->
    <g transform="translate(120, 50)">
      <ellipse cx="30" cy="40" rx="35" ry="8" fill="#13265b"/>
      <rect x="10" y="32" width="40" height="8" fill="#13265b"/>
      <polygon points="50,36 60,30 60,42" fill="#f59e0b"/>
      <line x1="60" y1="36" x2="70" y2="30" stroke="#f59e0b" stroke-width="2"/>
    </g>
    
    <!-- Speech bubbles with English words -->
    <g transform="translate(20, 20)">
      <ellipse cx="30" cy="25" rx="25" ry="15" fill="white" stroke="#13265b" stroke-width="2"/>
      <polygon points="20,35 15,45 25,40" fill="white" stroke="#13265b" stroke-width="2"/>
      <text x="30" y="30" text-anchor="middle" fill="#13265b" font-family="Arial, sans-serif" font-size="10" font-weight="bold">Hello!</text>
    </g>
    
    <g transform="translate(200, 30)">
      <ellipse cx="30" cy="25" rx="30" ry="15" fill="white" stroke="#f59e0b" stroke-width="2"/>
      <polygon points="40,35 45,45 35,40" fill="white" stroke="#f59e0b" stroke-width="2"/>
      <text x="30" y="30" text-anchor="middle" fill="#f59e0b" font-family="Arial, sans-serif" font-size="9" font-weight="bold">Success!</text>
    </g>
    
    <!-- Stars -->
    <g fill="#fbbf24">
      <polygon points="280,60 285,70 295,70 287,78 290,88 280,83 270,88 273,78 265,70 275,70" opacity="0.8">
        <animateTransform attributeName="transform" type="rotate" values="0 280 74;360 280 74" dur="4s" repeatCount="indefinite"/>
      </polygon>
      <polygon points="40,280 43,286 50,286 45,291 47,298 40,294 33,298 35,291 30,286 37,286" opacity="0.6">
        <animateTransform attributeName="transform" type="rotate" values="0 40 289;360 40 289" dur="5s" repeatCount="indefinite"/>
      </polygon>
    </g>
    
    <!-- Progress arrows -->
    <g stroke="#10b981" stroke-width="3" fill="none" opacity="0.7">
      <path d="M 280 150 Q 290 140 300 150">
        <animate attributeName="stroke-dasharray" values="0,20;20,0;0,20" dur="2s" repeatCount="indefinite"/>
      </path>
      <polygon points="295,145 305,150 295,155" fill="#10b981"/>
    </g>
  </g>
  
  <!-- Bottom text -->
  <text x="250" y="370" text-anchor="middle" fill="white" font-family="Arial, sans-serif" font-size="16" font-weight="bold">SEC English Center</text>
  <text x="250" y="390" text-anchor="middle" fill="#f59e0b" font-family="Arial, sans-serif" font-size="12">Simple • Effective • Confident</text>
</svg>