<svg width="100" height="100" viewBox="0 0 100 100" xmlns="http://www.w3.org/2000/svg">
  <defs>
    <linearGradient id="learningGradient" x1="0%" y1="0%" x2="100%" y2="100%">
      <stop offset="0%" style="stop-color:#13265b;stop-opacity:1" />
      <stop offset="100%" style="stop-color:#1a2f6b;stop-opacity:1" />
    </linearGradient>
  </defs>
  
  <!-- Background circle -->
  <circle cx="50" cy="50" r="45" fill="url(#learningGradient)"/>
  
  <!-- Book -->
  <g transform="translate(30, 35)">
    <rect x="0" y="0" width="40" height="30" rx="3" fill="#f59e0b"/>
    <rect x="3" y="3" width="34" height="24" rx="2" fill="white"/>
    
    <!-- Book lines -->
    <line x1="6" y1="8" x2="34" y2="8" stroke="#13265b" stroke-width="1"/>
    <line x1="6" y1="12" x2="30" y2="12" stroke="#13265b" stroke-width="1"/>
    <line x1="6" y1="16" x2="32" y2="16" stroke="#13265b" stroke-width="1"/>
    <line x1="6" y1="20" x2="28" y2="20" stroke="#13265b" stroke-width="1"/>
    
    <!-- Bookmark -->
    <rect x="35" y="0" width="4" height="15" fill="#ef4444"/>
    <polygon points="35,15 37,12 39,15" fill="#ef4444"/>
  </g>
  
  <!-- Graduation cap -->
  <g transform="translate(35, 15)">
    <ellipse cx="15" cy="12" rx="18" ry="4" fill="#13265b"/>
    <rect x="0" y="8" width="30" height="4" fill="#13265b"/>
    <polygon points="30,10 38,6 38,14" fill="#f59e0b"/>
    <line x1="38" y1="10" x2="45" y2="7" stroke="#f59e0b" stroke-width="2"/>
  </g>
  
  <!-- Light bulb (idea) -->
  <g transform="translate(65, 60)">
    <ellipse cx="8" cy="8" rx="6" ry="8" fill="#fbbf24"/>
    <rect x="5" y="14" width="6" height="3" fill="#13265b"/>
    <rect x="4" y="17" width="8" height="2" fill="#13265b"/>
    
    <!-- Light rays -->
    <g stroke="#fbbf24" stroke-width="2" opacity="0.7">
      <line x1="8" y1="0" x2="8" y2="-3">
        <animate attributeName="opacity" values="0.7;0.3;0.7" dur="1.5s" repeatCount="indefinite"/>
      </line>
      <line x1="16" y1="8" x2="19" y2="8">
        <animate attributeName="opacity" values="0.3;0.7;0.3" dur="1.5s" begin="0.3s" repeatCount="indefinite"/>
      </line>
      <line x1="0" y1="8" x2="-3" y2="8">
        <animate attributeName="opacity" values="0.7;0.3;0.7" dur="1.5s" begin="0.6s" repeatCount="indefinite"/>
      </line>
      <line x1="14" y1="2" x2="16" y2="0">
        <animate attributeName="opacity" values="0.3;0.7;0.3" dur="1.5s" begin="0.9s" repeatCount="indefinite"/>
      </line>
      <line x1="2" y1="2" x2="0" y2="0">
        <animate attributeName="opacity" values="0.7;0.3;0.7" dur="1.5s" begin="1.2s" repeatCount="indefinite"/>
      </line>
    </g>
  </g>
  
  <!-- Floating elements -->
  <g fill="#f59e0b" opacity="0.6">
    <circle cx="15" cy="20" r="2">
      <animate attributeName="cy" values="20;15;20" dur="3s" repeatCount="indefinite"/>
    </circle>
    <circle cx="85" cy="85" r="1.5">
      <animate attributeName="cy" values="85;80;85" dur="2.5s" repeatCount="indefinite"/>
    </circle>
  </g>
</svg>